<?xml version="1.0" encoding="UTF-8" standalone="no"?>
<svg
   xmlns:dc="http://purl.org/dc/elements/1.1/"
   xmlns:cc="http://creativecommons.org/ns#"
   xmlns:rdf="http://www.w3.org/1999/02/22-rdf-syntax-ns#"
   xmlns:svg="http://www.w3.org/2000/svg"
   xmlns="http://www.w3.org/2000/svg"
   xmlns:sodipodi="http://sodipodi.sourceforge.net/DTD/sodipodi-0.dtd"
   xmlns:inkscape="http://www.inkscape.org/namespaces/inkscape"
   height="323.88455"
   width="923.0769"
   viewBox="-128.24955 -74.99925 854.99698 182.18324"
   version="1.1"
   id="svg3783"
   sodipodi:docname="img.svg"
   inkscape:version="0.92.5 (2060ec1f9f, 2020-04-08)">
  <metadata
     id="metadata3789">
    <rdf:RDF>
      <cc:Work
         rdf:about="">
        <dc:format>image/svg+xml</dc:format>
        <dc:type
           rdf:resource="http://purl.org/dc/dcmitype/StillImage" />
        <dc:title></dc:title>
      </cc:Work>
    </rdf:RDF>
  </metadata>
  <defs
     id="defs3787" />
  <sodipodi:namedview
     pagecolor="#ffffff"
     bordercolor="#666666"
     borderopacity="1"
     objecttolerance="10"
     gridtolerance="10"
     guidetolerance="10"
     inkscape:pageopacity="0"
     inkscape:pageshadow="2"
     inkscape:window-width="1560"
     inkscape:window-height="838"
     id="namedview3785"
     showgrid="false"
     fit-margin-top="0"
     fit-margin-left="0"
     fit-margin-right="0"
     fit-margin-bottom="0"
     inkscape:zoom="0.52375"
     inkscape:cx="786.40058"
     inkscape:cy="352.79274"
     inkscape:window-x="3792"
     inkscape:window-y="27"
     inkscape:window-maximized="0"
     inkscape:current-layer="svg3783" />
  <path
     d="m -79.74155,-133.43317 c -26.814,0 -48.508,21.511 -48.508,48.068024 V 118.50494 c 0,26.53596 21.694,48.05893 48.508,48.05893 h 205.81 c 26.793,0 48.496,-21.52197 48.496,-48.05893 v -2.08599 c -0.902,-0.372 -78.698,-32.519975 -118.24,-51.356973 -26.677,32.523994 -61.086,52.255963 -96.812,52.255963 -60.412,0 -80.927,-52.379963 -52.322,-86.859964 6.237,-7.516999 16.847,-14.698 33.314,-18.717999 25.76,-6.2700015 66.756,3.914999 105.18,16.477 6.912,-12.614001 12.726,-26.5060025 17.057,-41.297006 h -118.41 v -11.880018 h 61.057 V -46.26508 h -73.951 v -11.888021 h 73.951 v -30.390048 c 0,0 0,-5.119009 5.236,-5.119009 h 29.848 v 35.508057 h 73.107 v 11.891021 h -73.107 v 21.303033 h 59.674 c -5.71,23.1760205 -14.38,44.509023 -25.264,63.236024 18.111,6.49 34.368,12.645999 46.484,16.666 40.413,13.397 51.74,15.034 53.201,15.205 V -85.364146 c 0,-26.557024 -21.704,-48.068024 -48.496,-48.068024 h -205.81 z m 33.207,162.540147 a 91.24,91.24 0 0 0 -7.822,0.426 c -7.565,0.753 -21.768,4.06 -29.533,10.865 -23.274,20.109 -9.344,56.869994 37.762,56.869994 27.383,0 54.743,-17.342995 76.236,-45.113994 -27.71,-13.395 -51.576,-23.335001 -76.643,-23.047 z"
     id="path3779"
     inkscape:connector-curvature="0"
     style="fill:#00a1e9" />
  <path
     d="m 701.23045,75.116976 -13.517,29.163994 -13.718,-29.163994 h -13.402 l 20.871,40.321974 v 28.12695 h 12.295 v -28.12695 l 0.074,-0.157 20.787,-40.164974 z m -98.969,17.643996 9.535,28.388968 h -19.407 z m 12.464,37.014948 4.594,13.78598 h 12.885 l -25.37,-68.449924 h -9.851 l -25.286,68.449924 h 12.896 l 4.793,-13.78598 z m -96.164,-21.93696 h -13.686 V 84.421974 h 13.686 c 6.88,0 10.989,5.976999 10.989,11.754997 0,5.652999 -3.846,11.660989 -10.989,11.660989 m 0.695,-32.722984 h -26.772 V 143.5649 h 12.39 v -26.31596 h 14.381 c 13.36,0 22.694,-8.66698 22.694,-21.071969 0,-12.404996 -9.334,-21.060995 -22.694,-21.060995 m -89.406,68.449924 h 12.401 V 75.115976 h -12.4 z m -87.163,-68.448924 V 143.5669 h 41.711 v -9.32698 h -29.32 V 75.116976 Z m -70.587,17.643996 9.525,28.388968 h -19.396 z m 12.464,37.014948 4.594,13.78598 h 12.875 l -25.37,-68.449924 h -9.84 l -25.287,68.449924 h 12.885 l 4.794,-13.78598 z m 87.23,-188.470021 h -53.153 v -18.92603 h 61.635 v -11.787021 h -61.635 v -23.982018 h -27.477 c -3.013,0 -5.447,2.512 -5.447,5.6 v 18.382018 h -61.203 v 11.787021 h 61.203 v 18.92703 h -51.656 v 11.776018 h 102.89 c 0,0 -5.7,22.120036 -33.925,45.8910565 -25.286,-19.0200115 -33.736,-34.1670385 -33.736,-34.1670385 h -27.604 c 11.168,19.230033 27.035,34.62803901 44.124,46.844042 -15.698,10.133 -36.054,19.9 -62.372,27.72 v 14.11 c 0,0 40.605,-7.61 79.851,-30.587 39.31,22.8 78.787,30.587 78.787,30.587 v -13.357 c -25.265,-9.138 -45.283,-19.188 -61.002,-28.88 22.768,-16.7600045 42.723,-39.50703 50.72,-69.937078 m 172.66,-52.334069 h -27.668 v 28.72403 h -68.198 v 11.567018 h 68.198 V 32.533976 c -0.242,2.366001 -2.117,4.208001 -4.467,4.334001 h -14.065 v 11.965 h 35.864 c 5.679,-0.23 10.21,-4.91 10.336,-10.709001 V -70.737122 h 11.231 V -82.30414 h -11.23 z m -58.349,59.777081 c -1.011,-2.051003 -3.076,-3.465006 -5.478,-3.486006 h -23.052 l 17.964,56.1920695 h 27.267 z m -68.092,-61.137081 -31.735,74.584102 h 24.348 v 88.747044 h 26.625 V -66.777116 h -9.65 l 20.05,-45.609054 z m 308.73,159.260147 -9.724,-32.639 c -0.653,-2.083001 -2.55,-3.59 -4.805,-3.59 h -25.78 l 7.48,25.07 h -30.313 v -48.570006 h 59.517 v -11.557018 h -59.517 v -22.863036 h 59.517 v -11.557018 h -148.52 v 11.557018 h 59.506 v 22.862036 h -59.506 v 11.557018 h 59.506 v 48.570006 h -59.506 v 11.557999 h 152.15 l -0.127,-0.397999 z m -121.2,-133.280123 h 86.678 v 17.052027 h 30.965 v -20.204033 c -0.01,-0.042 -0.01,-0.063 -0.01,-0.115 0,-4.543006 -3.582,-8.217012 -8.018,-8.290012 h -50.108 v -15.901006 h -32.399 v 15.900006 h -58.063 v 28.610045 h 30.954 z"
     id="path3781"
     inkscape:connector-curvature="0"
     style="fill:#3f3b3a" />
</svg>
